HIERARCHY
ROOT Hips
{
 OFFSET 0.000000 0.000000 0.000000
 CHANNELS 6 Xposition Yposition Zposition Yrotation Xrotation Zrotation
 JOINT Chest
 {
  OFFSET 0.000000 9.581000 -0.001100
  CHANNELS 3 Yrotation Xrotation Zrotation
  JOINT Chest2
  {
   OFFSET 0.000000 9.561100 0.002200
   CHANNELS 3 Yrotation Xrotation Zrotation
   JOINT Chest3
   {
    OFFSET 0.000000 9.521100 0.000000
    CHANNELS 3 Yrotation Xrotation Zrotation
    JOINT Chest4
    {
     OFFSET 0.000000 9.511400 0.000000
     CHANNELS 3 Yrotation Xrotation Zrotation
     JOINT Neck
     {
      OFFSET 0.000000 14.375100 0.000000
      CHANNELS 3 Yrotation Xrotation Zrotation
      JOINT Head
      {
       OFFSET 0.000000 8.901200 0.004600
       CHANNELS 3 Yrotation Xrotation Zrotation
       End Site
       {
        OFFSET 0.000000 16.962200 0.002400
       }
      }
     }
     JOINT RightCollar
     {
      OFFSET -2.920100 9.518800 0.000000
      CHANNELS 3 Yrotation Xrotation Zrotation
      JOINT RightShoulder
      {
       OFFSET -13.664500 0.000000 0.000000
       CHANNELS 3 Yrotation Xrotation Zrotation
       JOINT RightElbow
       {
        OFFSET 0.000000 -29.999200 0.000000
        CHANNELS 3 Yrotation Xrotation Zrotation
        JOINT RightWrist
        {
         OFFSET 0.000000 -24.253600 0.000000
         CHANNELS 3 Yrotation Xrotation Zrotation
         End Site
         {
          OFFSET 0.000000 -17.918900 0.000000
         }
        }
       }
      }
     }
     JOINT LeftCollar
     {
      OFFSET 2.920100 9.518800 0.000000
      CHANNELS 3 Yrotation Xrotation Zrotation
      JOINT LeftShoulder
      {
       OFFSET 13.664500 0.000000 0.000000
       CHANNELS 3 Yrotation Xrotation Zrotation
       JOINT LeftElbow
       {
        OFFSET 0.000000 -29.999200 0.000000
        CHANNELS 3 Yrotation Xrotation Zrotation
        JOINT LeftWrist
        {
         OFFSET 0.000000 -24.253600 0.000000
         CHANNELS 3 Yrotation Xrotation Zrotation
         End Site
         {
          OFFSET 0.000000 -17.918900 0.000000
         }
        }
       }
      }
     }
    }
   }
  }
 }
 JOINT RightHip
 {
  OFFSET -7.797300 0.005300 0.000500
  CHANNELS 3 Yrotation Xrotation Zrotation
  JOINT RightKnee
  {
   OFFSET 0.000000 -40.663400 -0.000500
   CHANNELS 3 Yrotation Xrotation Zrotation
   JOINT RightAnkle
   {
    OFFSET 0.000000 -39.523700 -0.000900
    CHANNELS 3 Yrotation Xrotation Zrotation
    JOINT RightToe
    {
     OFFSET 0.000000 -6.418000 14.485300
     CHANNELS 3 Yrotation Xrotation Zrotation
     End Site
     {
      OFFSET 0.000000 -1.465200 6.326400
     }
    }
   }
  }
 }
 JOINT LeftHip
 {
  OFFSET 7.797300 0.005300 0.000500
  CHANNELS 3 Yrotation Xrotation Zrotation
  JOINT LeftKnee
  {
   OFFSET 0.000000 -40.663400 -0.000500
   CHANNELS 3 Yrotation Xrotation Zrotation
   JOINT LeftAnkle
   {
    OFFSET 0.000000 -39.523700 -0.000900
    CHANNELS 3 Yrotation Xrotation Zrotation
    JOINT LeftToe
    {
     OFFSET 0.000000 -6.418000 14.485300
     CHANNELS 3 Yrotation Xrotation Zrotation
     End Site
     {
      OFFSET 0.000000 -1.465200 6.326400
     }
    }
   }
  }
 }
}
MOTION
Frames: 8
Frame Time: 0.008333
-22.025703 126.244295 72.248706 -173.192323 -24.469355 -0.986313 -1.528028 23.501896 0.152626 -0.220578 3.450639 0.059580 -0.365159 5.601573 0.094451 -1.261645 19.655453 0.170678 -0.696537 13.281634 -0.779304 -0.535513 -11.802285 -0.663732 -9.116026 -7.277358 -3.711577 -18.398635 0.689962 -6.996725 -123.082863 -59.173153 122.793705 -19.085791 -14.485242 -19.981786 -8.446001 -5.117526 4.936652 26.412349 -12.335006 9.288176 128.901551 -68.082737 -124.136457 2.157655 -27.507441 23.834397 -5.712013 -63.869094 4.359165 -47.109365 70.881597 -47.050480 20.952219 36.402296 11.075707 0.009071 -0.002716 0.004019 -9.120621 -52.065047 -9.025359 33.309624 76.546708 22.545523 1.930219 -1.714163 8.472271 0.005877 0.000586 0.002604
-22.027795 126.241414 72.247036 -173.197470 -24.436545 -0.991746 -1.512020 23.437382 0.156832 -0.220195 3.435601 0.059472 -0.354509 5.552004 0.092988 -1.250783 19.636122 0.176837 -0.722024 13.313358 -0.803984 -0.565411 -11.733962 -0.668350 -9.243464 -7.244388 -3.766406 -18.572319 0.767272 -7.019522 -123.464262 -59.356205 123.062656 -18.990884 -14.511271 -20.095941 -8.467141 -5.062205 5.005210 26.568228 -12.337304 9.341680 129.160400 -67.921085 -124.296510 2.224266 -27.621384 23.863198 -5.705268 -63.894979 4.358128 -47.108898 70.883016 -47.036507 20.925457 36.379714 11.049895 0.008678 -0.007666 0.003845 -9.106266 -52.094301 -9.031804 33.297162 76.548755 22.552686 1.937721 -1.716130 8.469021 0.006135 0.003255 0.002718
-22.028731 126.237311 72.248870 -173.220292 -24.383902 -0.993802 -1.486222 23.377503 0.168908 -0.221511 3.401372 0.052992 -0.347494 5.543276 0.094562 -1.244767 19.580898 0.177416 -0.755080 13.355688 -0.824802 -0.594996 -11.690600 -0.682642 -9.334778 -7.197726 -3.806895 -18.754501 0.803365 -7.035938 -123.919905 -59.620830 123.379227 -18.881589 -14.504383 -20.193616 -8.467449 -5.009153 5.060478 26.724354 -12.343753 9.368686 129.591035 -67.841624 -124.618088 2.273048 -27.738078 23.895125 -5.712512 -63.943794 4.387523 -47.114096 70.881407 -47.037028 20.896546 36.367076 11.033676 0.009161 -0.007026 0.004058 -9.090211 -52.143623 -9.032054 33.328623 76.542144 22.603319 1.944506 -1.717089 8.465734 0.001253 0.006140 0.000555
-22.031908 126.236231 72.245344 -173.220719 -24.372600 -0.995017 -1.483183 23.345077 0.162756 -0.234398 3.376403 0.053124 -0.334156 5.573888 0.099921 -1.253539 19.485166 0.173700 -0.786560 13.400168 -0.847184 -0.622705 -11.644978 -0.698949 -9.413414 -7.138025 -3.848818 -18.918831 0.810578 -7.039803 -124.387930 -59.924456 123.680170 -18.774464 -14.460658 -20.226368 -8.447972 -4.945310 5.096511 26.871903 -12.349371 9.374318 130.199217 -67.837846 -125.100224 2.298932 -27.861874 23.952141 -5.702493 -63.946269 4.370530 -47.111319 70.880463 -47.029441 20.876957 36.351520 11.029152 0.004720 -0.008688 0.002091 -9.092412 -52.154083 -9.033018 33.334092 76.541502 22.610372 1.944869 -1.715442 8.464519 0.003559 0.004575 0.001577
-22.033708 126.234285 72.244962 -173.241032 -24.347036 -0.993341 -1.498590 23.255266 0.139350 -0.220655 3.376617 0.058076 -0.343673 5.492503 0.093730 -1.243367 19.492177 0.174203 -0.811556 13.458480 -0.864545 -0.644915 -11.585398 -0.711510 -9.482735 -7.042818 -3.887023 -19.064524 0.786873 -7.041263 -124.797831 -60.211925 123.903170 -18.683542 -14.377941 -20.166495 -8.415826 -4.839540 5.109138 27.006646 -12.363466 9.364283 130.950229 -67.891911 -125.709763 2.306098 -27.995529 24.049646 -5.691103 -63.965456 4.370694 -47.096337 70.895099 -47.017846 20.847279 36.308074 11.032551 -0.001947 -0.006179 -0.000863 -9.092149 -52.183493 -9.028199 33.365988 76.542375 22.646685 1.956608 -1.712509 8.461282 0.000648 0.002860 0.000287
-22.031843 126.232531 72.245498 -173.271369 -24.321898 -1.007934 -1.496063 23.153648 0.137472 -0.216441 3.363547 0.059083 -0.348487 5.434167 0.089297 -1.245392 19.460661 0.168795 -0.823881 13.537612 -0.872568 -0.626796 -11.494852 -0.720477 -9.539711 -6.897952 -3.919285 -19.194526 0.735818 -7.046866 -125.097254 -60.437683 124.010208 -18.618452 -14.258077 -20.010899 -8.372315 -4.670461 5.096068 27.102419 -12.386538 9.351151 131.792026 -67.965599 -126.377653 2.303210 -28.132475 24.184182 -5.705472 -63.982938 4.410690 -47.075717 70.897924 -46.996363 20.870216 36.291450 11.047558 -0.004482 -0.002117 -0.001986 -9.119991 -52.207491 -8.978071 33.407541 76.545978 22.688179 1.960098 -1.721930 8.455643 -0.001271 0.004312 -0.000563
-22.032309 126.232239 72.244569 -173.282980 -24.318413 -1.016493 -1.521810 23.059784 0.118886 -0.217694 3.335455 0.057116 -0.350756 5.391356 0.086129 -1.260879 19.395643 0.156961 -0.817884 13.639914 -0.872302 -0.605065 -11.380903 -0.735800 -9.550700 -6.695420 -3.954703 -19.338061 0.657400 -7.052163 -125.260221 -60.584999 123.986834 -18.586174 -14.114204 -19.773778 -8.303658 -4.483090 5.094661 27.125101 -12.351032 9.336222 132.627530 -68.014589 -126.999714 2.298863 -28.268084 24.341579 -5.701454 -63.976942 4.397307 -47.028625 70.904166 -46.948040 20.976375 36.266441 11.081332 -0.004898 -0.000465 -0.002170 -9.142090 -52.211159 -8.947520 33.442461 76.548607 22.712974 1.957815 -1.726896 8.456855 -0.001169 0.003331 -0.000518
-22.033300 126.231927 72.245315 -173.289624 -24.316317 -1.021558 -1.561240 22.943039 0.091143 -0.220010 3.303170 0.054496 -0.354802 5.342044 0.081891 -1.284425 19.320112 0.140337 -0.794458 13.763698 -0.863118 -0.596767 -11.252247 -0.748719 -9.494609 -6.433166 -3.998070 -19.522252 0.547647 -7.047565 -125.286477 -60.660092 123.845140 -18.590598 -13.970292 -19.496741 -8.218421 -4.247640 5.071042 27.287225 -12.374223 9.269641 133.109071 -68.055824 -127.455833 2.297179 -28.401247 24.502496 -5.708817 -63.973209 4.404440 -47.033807 70.896819 -46.961581 21.041287 36.224443 11.094610 0.001002 -0.005245 0.000444 -9.146636 -52.212921 -8.934320 33.453104 76.553031 22.720729 1.954613 -1.731613 8.460047 -0.000176 0.002935 -0.000078
